<svg width="23" height="24" viewBox="0 0 23 24" fill="none" xmlns="http://www.w3.org/2000/svg">
<path d="M11.499 24C17.8512 24 23 18.6273 23 11.9989C23 8.68527 21.7125 5.685 19.6317 3.51262C18.5649 2.39722 17.2975 1.51272 15.9022 0.909917C14.5069 0.307117 13.0112 -0.00210524 11.501 1.0787e-05C5.14881 1.0787e-05 0 5.37268 0 12.0011C0 15.3137 1.28643 18.3129 3.36625 20.4852C4.42685 21.6008 5.68891 22.4858 7.07942 23.0891C8.46993 23.6924 9.96128 24.002 11.4672 24H11.5H11.498H11.499ZM11.499 1.60229C16.9932 1.60229 21.4624 6.2658 21.4624 11.9989C21.4624 17.7321 16.9932 22.3956 11.499 22.3956C6.00472 22.3956 1.53552 17.7321 1.53552 11.9989C1.53552 6.2658 6.00472 1.60229 11.499 1.60229Z" fill="white" fill-opacity="0.51"/>
<path d="M12.8467 19V12.6243H15.5122L15.9084 10.128H12.8467V8.53802C12.8467 7.81769 13.0954 7.3245 14.3766 7.3245H16V5.09892C15.2101 5.03062 14.4162 4.99764 13.6218 5.00013C11.2657 5.00013 9.64814 6.16076 9.64814 8.29143V10.1234H7V12.6197H9.65392V19H12.8467Z" fill="white" fill-opacity="0.51"/>
</svg>
