<svg width="23" height="24" viewBox="0 0 23 24" fill="none" xmlns="http://www.w3.org/2000/svg">
<path d="M9.19 6H13.81C15.57 6 17 7.5808 17 9.5264V14.6336C17 15.5689 16.6639 16.4658 16.0657 17.1271C15.4674 17.7885 14.656 18.16 13.81 18.16H9.19C7.43 18.16 6 16.5792 6 14.6336V9.5264C6 8.59114 6.33609 7.69419 6.93433 7.03286C7.53257 6.37153 8.34396 6 9.19 6ZM9.08 7.216C8.55487 7.216 8.05125 7.44661 7.67993 7.85709C7.30861 8.26757 7.1 8.82429 7.1 9.4048V14.7552C7.1 15.9651 7.9855 16.944 9.08 16.944H13.92C14.4451 16.944 14.9488 16.7134 15.3201 16.3029C15.6914 15.8924 15.9 15.3357 15.9 14.7552V9.4048C15.9 8.19488 15.0145 7.216 13.92 7.216H9.08ZM14.3875 8.128C14.5698 8.128 14.7447 8.20807 14.8736 8.3506C15.0026 8.49313 15.075 8.68644 15.075 8.888C15.075 9.08957 15.0026 9.28287 14.8736 9.4254C14.7447 9.56793 14.5698 9.648 14.3875 9.648C14.2052 9.648 14.0303 9.56793 13.9014 9.4254C13.7724 9.28287 13.7 9.08957 13.7 8.888C13.7 8.68644 13.7724 8.49313 13.9014 8.3506C14.0303 8.20807 14.2052 8.128 14.3875 8.128ZM11.5 9.04C12.2293 9.04 12.9288 9.36029 13.4445 9.9304C13.9603 10.5005 14.25 11.2737 14.25 12.08C14.25 12.8863 13.9603 13.6595 13.4445 14.2296C12.9288 14.7997 12.2293 15.12 11.5 15.12C10.7707 15.12 10.0712 14.7997 9.55546 14.2296C9.03973 13.6595 8.75 12.8863 8.75 12.08C8.75 11.2737 9.03973 10.5005 9.55546 9.9304C10.0712 9.36029 10.7707 9.04 11.5 9.04ZM11.5 10.256C11.0624 10.256 10.6427 10.4482 10.3333 10.7902C10.0238 11.1323 9.85 11.5962 9.85 12.08C9.85 12.5638 10.0238 13.0277 10.3333 13.3698C10.6427 13.7118 11.0624 13.904 11.5 13.904C11.9376 13.904 12.3573 13.7118 12.6667 13.3698C12.9762 13.0277 13.15 12.5638 13.15 12.08C13.15 11.5962 12.9762 11.1323 12.6667 10.7902C12.3573 10.4482 11.9376 10.256 11.5 10.256Z" fill="white" fill-opacity="0.51"/>
<path d="M11.499 24C17.8512 24 23 18.6273 23 11.9989C23 8.68527 21.7125 5.685 19.6317 3.51262C18.5649 2.39722 17.2975 1.51272 15.9022 0.909917C14.5069 0.307117 13.0112 -0.00210524 11.501 1.0787e-05C5.14881 1.0787e-05 0 5.37268 0 12.0011C0 15.3137 1.28643 18.3129 3.36625 20.4852C4.42685 21.6008 5.68891 22.4858 7.07942 23.0891C8.46993 23.6924 9.96128 24.002 11.4672 24H11.5H11.498H11.499ZM11.499 1.60229C16.9932 1.60229 21.4624 6.2658 21.4624 11.9989C21.4624 17.7321 16.9932 22.3956 11.499 22.3956C6.00472 22.3956 1.53552 17.7321 1.53552 11.9989C1.53552 6.2658 6.00472 1.60229 11.499 1.60229Z" fill="white" fill-opacity="0.51"/>
</svg>
