<svg width="115" height="569" viewBox="0 0 115 569" fill="none" xmlns="http://www.w3.org/2000/svg">
<path d="M94.346 560.018L23.3459 560.018L23.3459 530.618C23.3459 527.552 24.0126 524.752 25.3459 522.218C26.6126 519.618 28.3126 517.385 30.4459 515.518C32.5126 513.652 34.8793 512.185 37.5459 511.118C40.2126 510.052 42.9126 509.518 45.646 509.518C48.5793 509.518 51.4126 510.018 54.146 511.018C56.8126 512.018 59.1793 513.418 61.246 515.218C63.3126 517.018 64.9793 519.185 66.246 521.718C67.5126 524.185 68.146 526.952 68.146 530.018V553.018H94.346V560.018ZM61.946 553.018L61.946 530.318C61.946 528.252 61.5126 526.385 60.646 524.718C59.7126 522.985 58.5126 521.518 57.046 520.318C55.5126 519.118 53.7793 518.185 51.846 517.518C49.846 516.852 47.7793 516.518 45.646 516.518C43.4459 516.518 41.3793 516.918 39.4459 517.718C37.4459 518.452 35.7126 519.485 34.246 520.818C32.7793 522.085 31.6459 523.618 30.8459 525.418C29.9793 527.152 29.546 528.985 29.546 530.918V553.018H61.946ZM94.846 469.211C94.846 474.145 93.846 478.678 91.846 482.811C89.7793 486.878 87.0793 490.378 83.746 493.311C80.346 496.245 76.4793 498.511 72.146 500.111C67.8126 501.711 63.3793 502.511 58.846 502.511C54.1126 502.511 49.5793 501.678 45.2459 500.011C40.9126 498.278 37.0793 495.911 33.746 492.911C30.4126 489.911 27.7793 486.378 25.8459 482.311C23.8459 478.245 22.8459 473.845 22.8459 469.111C22.8459 464.178 23.9126 459.678 26.0459 455.611C28.1126 451.478 30.8459 447.978 34.246 445.111C37.646 442.178 41.5126 439.911 45.846 438.311C50.1126 436.711 54.4793 435.911 58.946 435.911C63.6793 435.911 68.2126 436.778 72.546 438.511C76.8793 440.178 80.7126 442.511 84.046 445.511C87.3126 448.444 89.946 451.944 91.946 456.011C93.8793 460.078 94.846 464.478 94.846 469.211ZM58.846 495.511C62.7126 495.511 66.446 494.878 70.046 493.611C73.5793 492.345 76.746 490.545 79.546 488.211C82.2793 485.878 84.4793 483.111 86.146 479.911C87.746 476.711 88.546 473.145 88.546 469.211C88.546 465.211 87.6793 461.578 85.946 458.311C84.2126 455.044 81.946 452.278 79.146 450.011C76.346 447.744 73.1793 446.011 69.646 444.811C66.1126 443.544 62.5126 442.911 58.846 442.911C54.9793 442.911 51.2793 443.578 47.746 444.911C44.1459 446.178 40.9793 447.978 38.2459 450.311C35.5126 452.644 33.3459 455.411 31.7459 458.611C30.0793 461.811 29.2459 465.344 29.2459 469.211C29.2459 473.211 30.1126 476.845 31.846 480.111C33.5126 483.378 35.7459 486.145 38.5459 488.411C41.3459 490.678 44.5126 492.445 48.046 493.711C51.5793 494.911 55.1793 495.511 58.846 495.511ZM94.346 422.714H23.3459L23.3459 392.714C23.3459 389.647 24.0126 386.847 25.3459 384.314C26.6126 381.714 28.3126 379.48 30.4459 377.614C32.5126 375.747 34.8793 374.314 37.5459 373.314C40.2126 372.247 42.9126 371.713 45.646 371.713C48.246 371.713 50.746 372.113 53.146 372.914C55.4793 373.647 57.6126 374.713 59.546 376.114C61.4126 377.447 63.0126 379.08 64.346 381.013C65.6126 382.947 66.4793 385.114 66.946 387.514L94.346 370.114V378.014L68.146 394.714L68.146 415.714H94.346V422.714ZM61.946 415.714V392.514C61.946 390.447 61.5126 388.58 60.646 386.914C59.7126 385.18 58.4793 383.714 56.946 382.514C55.4126 381.314 53.6793 380.38 51.746 379.713C49.8126 379.047 47.7793 378.713 45.646 378.713C43.5126 378.713 41.4793 379.113 39.5459 379.914C37.5459 380.647 35.8126 381.68 34.3459 383.014C32.8793 384.28 31.7126 385.814 30.8459 387.614C29.9793 389.347 29.546 391.18 29.546 393.114L29.546 415.714H61.946ZM29.546 308.056L29.546 333.356H94.346V340.356H29.546V365.656H23.3459L23.3459 308.056H29.546ZM94.346 297.421H23.3459L23.3459 250.821H29.546L29.546 290.421H55.646L55.646 257.021H61.446L61.446 290.421H94.346V297.421ZM94.846 211.496C94.846 216.43 93.846 220.963 91.846 225.096C89.7793 229.163 87.0793 232.663 83.746 235.596C80.346 238.53 76.4793 240.796 72.146 242.396C67.8126 243.996 63.3793 244.796 58.846 244.796C54.1126 244.796 49.5793 243.963 45.2459 242.296C40.9126 240.563 37.0793 238.196 33.746 235.196C30.4126 232.196 27.7793 228.663 25.8459 224.596C23.8459 220.53 22.8459 216.13 22.8459 211.396C22.8459 206.463 23.9126 201.963 26.0459 197.896C28.1126 193.763 30.8459 190.263 34.246 187.396C37.646 184.463 41.5126 182.196 45.846 180.596C50.1126 178.996 54.4793 178.196 58.946 178.196C63.6793 178.196 68.2126 179.063 72.546 180.796C76.8793 182.463 80.7126 184.796 84.046 187.796C87.3126 190.73 89.946 194.23 91.946 198.296C93.8793 202.363 94.846 206.763 94.846 211.496ZM58.846 237.796C62.7126 237.796 66.446 237.163 70.046 235.896C73.5793 234.63 76.746 232.83 79.546 230.496C82.2793 228.163 84.4793 225.396 86.146 222.196C87.746 218.996 88.546 215.43 88.546 211.496C88.546 207.496 87.6793 203.863 85.946 200.596C84.2126 197.33 81.946 194.563 79.146 192.296C76.346 190.03 73.1793 188.296 69.646 187.096C66.1126 185.83 62.5126 185.196 58.846 185.196C54.9793 185.196 51.2793 185.863 47.746 187.196C44.1459 188.463 40.9793 190.263 38.2459 192.596C35.5126 194.93 33.3459 197.696 31.7459 200.896C30.0793 204.096 29.2459 207.63 29.2459 211.496C29.2459 215.496 30.1126 219.13 31.846 222.396C33.5126 225.663 35.7459 228.43 38.5459 230.696C41.3459 232.963 44.5126 234.73 48.046 235.996C51.5793 237.196 55.1793 237.796 58.846 237.796ZM94.346 164.999H23.3459V157.999H88.146V116.999H94.346V164.999ZM94.346 106.698H23.3459V99.6978H94.346V106.698ZM94.846 53.2931C94.846 58.2265 93.846 62.7598 91.846 66.8932C89.7793 70.9598 87.0793 74.4598 83.746 77.3932C80.346 80.3265 76.4793 82.5932 72.146 84.1932C67.8126 85.7932 63.3793 86.5932 58.846 86.5932C54.1126 86.5932 49.5793 85.7598 45.2459 84.0932C40.9126 82.3598 37.0793 79.9932 33.746 76.9932C30.4126 73.9932 27.7793 70.4598 25.8459 66.3932C23.8459 62.3265 22.8459 57.9265 22.8459 53.1931C22.8459 48.2598 23.9126 43.7598 26.0459 39.6931C28.1126 35.5598 30.8459 32.0598 34.246 29.1931C37.646 26.2598 41.5126 23.9931 45.846 22.3931C50.1126 20.7931 54.4793 19.9931 58.946 19.9931C63.6793 19.9931 68.2126 20.8598 72.546 22.5931C76.8793 24.2598 80.7126 26.5931 84.046 29.5931C87.3126 32.5265 89.946 36.0265 91.946 40.0931C93.8793 44.1598 94.846 48.5598 94.846 53.2931ZM58.846 79.5932C62.7126 79.5932 66.446 78.9598 70.046 77.6932C73.5793 76.4265 76.746 74.6265 79.546 72.2932C82.2793 69.9598 84.4793 67.1932 86.146 63.9932C87.746 60.7932 88.546 57.2265 88.546 53.2931C88.546 49.2931 87.6793 45.6598 85.946 42.3931C84.2126 39.1265 81.946 36.3598 79.146 34.0931C76.346 31.8265 73.1793 30.0931 69.646 28.8931C66.1126 27.6265 62.5126 26.9931 58.846 26.9931C54.9793 26.9931 51.2793 27.6598 47.746 28.9931C44.1459 30.2598 40.9793 32.0598 38.2459 34.3931C35.5126 36.7265 33.3459 39.4931 31.7459 42.6931C30.0793 45.8931 29.2459 49.4265 29.2459 53.2931C29.2459 57.2931 30.1126 60.9265 31.846 64.1932C33.5126 67.4598 35.7459 70.2265 38.5459 72.4932C41.3459 74.7598 44.5126 76.5265 48.046 77.7932C51.5793 78.9932 55.1793 79.5932 58.846 79.5932Z" fill="url(#paint0_linear)" fill-opacity="0.59"/>
<defs>
<linearGradient id="paint0_linear" x1="0.345947" y1="284.494" x2="140.001" y2="284.101" gradientUnits="userSpaceOnUse">
<stop stop-color="white" stop-opacity="0.85"/>
<stop offset="0.786458" stop-opacity="0.58"/>
</linearGradient>
</defs>
</svg>
